<?xml version="1.0" encoding="UTF-8"?>
<svg xmlns="http://www.w3.org/2000/svg" width="1024" height="1024" viewBox="0 0 1024 1024" role="img" aria-labelledby="title desc">
  <title id="title">Front view of a reflector telescope</title>
  <desc id="desc">A polished copper-orange telescope rim surrounds a deep black optical tube, a reflective primary mirror, three dark support vanes, and a central secondary mirror.</desc>

  <defs>
    <linearGradient id="copper" x1="150" y1="80" x2="850" y2="945" gradientUnits="userSpaceOnUse">
      <stop offset="0" stop-color="#6f220b"/>
      <stop offset="0.10" stop-color="#ce5c22"/>
      <stop offset="0.24" stop-color="#f29a53"/>
      <stop offset="0.41" stop-color="#d86627"/>
      <stop offset="0.67" stop-color="#b84716"/>
      <stop offset="0.86" stop-color="#e67a35"/>
      <stop offset="1" stop-color="#6d200b"/>
    </linearGradient>

    <linearGradient id="copperEdge" x1="220" y1="80" x2="785" y2="946" gradientUnits="userSpaceOnUse">
      <stop offset="0" stop-color="#ffd09e"/>
      <stop offset="0.27" stop-color="#e27b36"/>
      <stop offset="0.65" stop-color="#8f2f10"/>
      <stop offset="0.84" stop-color="#ff9f58"/>
      <stop offset="1" stop-color="#4d1608"/>
    </linearGradient>

    <linearGradient id="tube" x1="174" y1="756" x2="852" y2="267" gradientUnits="userSpaceOnUse">
      <stop offset="0" stop-color="#020304"/>
      <stop offset="0.34" stop-color="#090b0d"/>
      <stop offset="0.61" stop-color="#202326"/>
      <stop offset="0.80" stop-color="#4d4946"/>
      <stop offset="1" stop-color="#111315"/>
    </linearGradient>

    <linearGradient id="wellWall" x1="180" y1="744" x2="847" y2="260" gradientUnits="userSpaceOnUse">
      <stop offset="0" stop-color="#020304"/>
      <stop offset="0.28" stop-color="#07090a"/>
      <stop offset="0.52" stop-color="#171a1c"/>
      <stop offset="0.73" stop-color="#57514d"/>
      <stop offset="0.88" stop-color="#2a292a"/>
      <stop offset="1" stop-color="#080a0b"/>
    </linearGradient>

    <linearGradient id="wallSheen" x1="264" y1="194" x2="844" y2="650" gradientUnits="userSpaceOnUse">
      <stop offset="0" stop-color="#0a0b0c"/>
      <stop offset="0.38" stop-color="#4a4644"/>
      <stop offset="0.57" stop-color="#aca099"/>
      <stop offset="0.73" stop-color="#3b3939"/>
      <stop offset="1" stop-color="#060708"/>
    </linearGradient>

    <radialGradient id="barrelGlint" cx="64%" cy="30%" r="62%">
      <stop offset="0" stop-color="#d1c7c0" stop-opacity=".74"/>
      <stop offset="0.27" stop-color="#8d8580" stop-opacity=".46"/>
      <stop offset="0.58" stop-color="#4b4a4b" stop-opacity=".20"/>
      <stop offset="1" stop-color="#111315" stop-opacity="0"/>
    </radialGradient>

    <radialGradient id="mirror" cx="72%" cy="66%" r="77%">
      <stop offset="0" stop-color="#f3f6f5"/>
      <stop offset="0.15" stop-color="#bdc7c9"/>
      <stop offset="0.33" stop-color="#6d797e"/>
      <stop offset="0.56" stop-color="#293238"/>
      <stop offset="0.77" stop-color="#0d1419"/>
      <stop offset="1" stop-color="#010305"/>
    </radialGradient>

    <radialGradient id="concaveShade" cx="50%" cy="47%" r="58%">
      <stop offset="0" stop-color="#f0f7f7" stop-opacity=".24"/>
      <stop offset="0.34" stop-color="#cad4d6" stop-opacity=".08"/>
      <stop offset="0.62" stop-color="#111920" stop-opacity="0"/>
      <stop offset="0.82" stop-color="#030609" stop-opacity=".48"/>
      <stop offset="1" stop-color="#000204" stop-opacity=".92"/>
    </radialGradient>

    <radialGradient id="focusBloom" cx="52%" cy="52%" r="52%">
      <stop offset="0" stop-color="#f7ffff" stop-opacity=".30"/>
      <stop offset="0.18" stop-color="#e0ecee" stop-opacity=".18"/>
      <stop offset="0.43" stop-color="#9dabad" stop-opacity=".045"/>
      <stop offset="0.72" stop-color="#7b898d" stop-opacity="0"/>
      <stop offset="1" stop-color="#7b898d" stop-opacity="0"/>
    </radialGradient>

    <radialGradient id="secondary" cx="35%" cy="29%" r="76%">
      <stop offset="0" stop-color="#2b2d2f"/>
      <stop offset="0.48" stop-color="#151719"/>
      <stop offset="0.82" stop-color="#090a0b"/>
      <stop offset="1" stop-color="#020303"/>
    </radialGradient>

    <radialGradient id="screwHead" cx="33%" cy="25%" r="74%">
      <stop offset="0" stop-color="#59636a"/>
      <stop offset="0.28" stop-color="#242a2e"/>
      <stop offset="0.78" stop-color="#07090a"/>
      <stop offset="1" stop-color="#000"/>
    </radialGradient>

    <radialGradient id="warmFlare" cx="50%" cy="50%" r="50%">
      <stop offset="0" stop-color="#fff7d1" stop-opacity="1"/>
      <stop offset="0.14" stop-color="#ffd78f" stop-opacity="0.96"/>
      <stop offset="0.38" stop-color="#ef9b48" stop-opacity="0.56"/>
      <stop offset="1" stop-color="#9d431d" stop-opacity="0"/>
    </radialGradient>

    <linearGradient id="vaneEdge" x1="0" y1="0" x2="1" y2="1">
      <stop offset="0" stop-color="#565b5e"/>
      <stop offset="0.45" stop-color="#202427"/>
      <stop offset="1" stop-color="#050607"/>
    </linearGradient>

    <filter id="drop" x="-25%" y="-25%" width="150%" height="150%">
      <feGaussianBlur in="SourceAlpha" stdDeviation="14" result="blur"/>
      <feOffset dy="18" result="offset"/>
      <feColorMatrix in="offset" type="matrix" values="0 0 0 0 0  0 0 0 0 0  0 0 0 0 0  0 0 0 .58 0" result="shadow"/>
      <feMerge><feMergeNode in="shadow"/><feMergeNode in="SourceGraphic"/></feMerge>
    </filter>

    <filter id="softCloud" x="-35%" y="-35%" width="170%" height="170%">
      <feTurbulence type="fractalNoise" baseFrequency="0.018 0.041" numOctaves="3" seed="18" result="noise"/>
      <feDisplacementMap in="SourceGraphic" in2="noise" scale="17" xChannelSelector="R" yChannelSelector="B" result="distorted"/>
      <feGaussianBlur in="distorted" stdDeviation="4.2"/>
    </filter>

    <filter id="cloudDetail" x="-25%" y="-25%" width="150%" height="150%">
      <feTurbulence type="fractalNoise" baseFrequency="0.027 0.065" numOctaves="2" seed="23" result="detailNoise"/>
      <feDisplacementMap in="SourceGraphic" in2="detailNoise" scale="8" xChannelSelector="R" yChannelSelector="B" result="detailed"/>
      <feGaussianBlur in="detailed" stdDeviation="1.2"/>
    </filter>

    <filter id="softGlow" x="-100%" y="-100%" width="300%" height="300%">
      <feGaussianBlur stdDeviation="18"/>
    </filter>

    <filter id="mirrorSoft" x="-20%" y="-20%" width="140%" height="140%">
      <feGaussianBlur stdDeviation="6"/>
    </filter>

    <filter id="vaneShadow" x="-30%" y="-30%" width="160%" height="160%">
      <feGaussianBlur stdDeviation="13"/>
    </filter>

    <filter id="wallBlur" x="-30%" y="-30%" width="160%" height="160%">
      <feGaussianBlur stdDeviation="20"/>
    </filter>

    <filter id="metalNoise" x="-15%" y="-15%" width="130%" height="130%">
      <feTurbulence type="fractalNoise" baseFrequency="0.11" numOctaves="2" seed="9" result="n"/>
      <feColorMatrix in="n" type="saturate" values="0" result="mono"/>
      <feBlend in="SourceGraphic" in2="mono" mode="soft-light"/>
    </filter>

    <clipPath id="mirrorClip"><ellipse cx="500" cy="542" rx="298" ry="290"/></clipPath>
    <mask id="orangeRingMask">
      <rect width="1024" height="1024" fill="#000"/>
      <circle cx="512" cy="512" r="476" fill="#fff"/>
      <circle cx="512" cy="512" r="408" fill="#000"/>
    </mask>
    <mask id="tubeWallMask">
      <rect width="1024" height="1024" fill="#000"/>
      <circle cx="512" cy="512" r="400" fill="#fff"/>
      <ellipse cx="500" cy="542" rx="326" ry="318" fill="#000"/>
    </mask>

    <g id="screw">
      <circle r="18" fill="#371408" opacity=".85"/>
      <circle r="14.5" fill="url(#screwHead)" stroke="#010202" stroke-width="4"/>
      <circle cx="-4" cy="-5" r="3.2" fill="#9da6aa" opacity=".48"/>
      <path d="M-5 0L5 0" stroke="#050607" stroke-width="3.5" stroke-linecap="round" opacity=".8"/>
    </g>
  </defs>

  <!-- A soft object shadow; the canvas beyond the telescope remains transparent. -->
  <circle cx="512" cy="512" r="470" fill="#0a0b0c" opacity=".92" filter="url(#drop)"/>

  <!-- Copper-orange retaining ring. -->
  <circle cx="512" cy="512" r="474" fill="url(#copper)" stroke="#4f1808" stroke-width="10"/>
  <circle cx="512" cy="512" r="462" fill="none" stroke="url(#copperEdge)" stroke-width="8" opacity=".95"/>
  <circle cx="512" cy="512" r="423" fill="none" stroke="#76270f" stroke-width="14" opacity=".92"/>
  <circle cx="512" cy="512" r="412" fill="none" stroke="#ffb06c" stroke-width="4" opacity=".72"/>
  <rect width="1024" height="1024" fill="#d46a2b" opacity=".13" filter="url(#metalNoise)" mask="url(#orangeRingMask)"/>
  <path d="M183 823A454 454 0 0 0 790 881" fill="none" stroke="#5d1a08" stroke-width="10" stroke-linecap="round" opacity=".62"/>

  <!-- Recessed optical tube and stepped inner lip. -->
  <circle cx="512" cy="512" r="406" fill="url(#tube)" stroke="#020303" stroke-width="12"/>
  <circle cx="512" cy="512" r="390" fill="none" stroke="#383536" stroke-width="8" opacity=".72"/>
  <circle cx="512" cy="512" r="377" fill="none" stroke="#050607" stroke-width="26"/>
  <circle cx="512" cy="512" r="363" fill="none" stroke="#232526" stroke-width="7" opacity=".82"/>
  <path d="M205 337A360 360 0 0 1 806 285" fill="none" stroke="#8a817c" stroke-width="15" opacity=".32"/>
  <path d="M229 736A360 360 0 0 0 809 720" fill="none" stroke="#000" stroke-width="18" opacity=".78"/>

  <!-- Deep cylindrical well between the front baffle and the primary mirror. -->
  <circle cx="512" cy="512" r="357" fill="url(#wellWall)" stroke="#020303" stroke-width="8"/>
  <circle cx="512" cy="512" r="347" fill="none" stroke="#4a494a" stroke-width="6" opacity=".50"/>
  <circle cx="512" cy="512" r="338" fill="none" stroke="#08090a" stroke-width="18"/>
  <path d="M242 294A350 350 0 0 1 851 650" fill="none" stroke="url(#wallSheen)" stroke-width="50" opacity=".80"/>
  <path d="M357 189A350 350 0 0 1 837 397" fill="none" stroke="#c1b7b0" stroke-width="12" opacity=".28"/>
  <path d="M213 651A350 350 0 0 0 446 850" fill="none" stroke="#000" stroke-width="42" opacity=".84"/>

  <!-- Satin reflections are restricted to the exposed tube wall, never the mirror. -->
  <g mask="url(#tubeWallMask)">
    <ellipse cx="681" cy="330" rx="304" ry="246" fill="url(#barrelGlint)" opacity=".72" filter="url(#wallBlur)"/>
    <path d="M462 151C661 146 828 274 870 472" fill="none" stroke="#d7cec7" stroke-width="44" stroke-linecap="round" opacity=".18" filter="url(#wallBlur)"/>
    <path d="M550 165C710 189 827 303 854 447" fill="none" stroke="#eee7df" stroke-width="9" stroke-linecap="round" opacity=".30" filter="url(#wallBlur)"/>
    <path d="M190 400C167 538 215 665 323 760" fill="none" stroke="#71808a" stroke-width="25" stroke-linecap="round" opacity=".12" filter="url(#wallBlur)"/>
    <rect width="1024" height="1024" fill="#a7a4a1" opacity=".055" filter="url(#metalNoise)"/>
  </g>

  <!-- Deep black mirror cell, followed by the smaller reflective glass at its base. -->
  <ellipse cx="500" cy="542" rx="326" ry="318" fill="#020304" stroke="#111416" stroke-width="11"/>
  <ellipse cx="500" cy="542" rx="313" ry="305" fill="none" stroke="#514f4e" stroke-width="6" opacity=".34"/>
  <ellipse cx="500" cy="542" rx="305" ry="297" fill="none" stroke="#000" stroke-width="13" opacity=".95"/>

  <!-- Primary mirror glass sits inside the black mirror cell. -->
  <ellipse cx="500" cy="542" rx="298" ry="290" fill="url(#mirror)" stroke="#010304" stroke-width="10"/>
  <g clip-path="url(#mirrorClip)">
    <g transform="translate(-12 30)">
    <ellipse cx="675" cy="607" rx="288" ry="275" fill="#dce3e4" opacity=".045"/>
    <path d="M531 292C682 309 781 417 797 533C813 650 740 742 650 789C683 700 661 615 607 557C561 507 520 476 479 461C524 414 548 363 531 292Z" fill="#f7faf8" opacity=".15" filter="url(#mirrorSoft)"/>
    <ellipse cx="300" cy="354" rx="207" ry="228" fill="#010306" opacity=".58"/>

    <!-- Stylized galactic reflection, built from editable vector paths. -->
    <path d="M222 748C298 697 273 631 318 570C358 516 419 516 451 462C484 407 460 348 538 268C557 248 577 232 591 218L548 207C492 267 470 322 467 369C463 413 440 443 410 468C365 505 321 533 297 581C269 637 278 695 222 748Z" fill="#07111a" opacity=".94" filter="url(#softCloud)"/>
    <path d="M251 744C310 692 294 636 334 580C372 528 425 525 457 476C491 424 476 370 548 291C558 280 570 269 582 258L553 249C501 307 486 351 486 391C486 433 460 469 431 492C390 525 350 552 329 595C305 643 311 692 251 744Z" fill="#b7c7d0" opacity=".48" filter="url(#softCloud)"/>
    <path d="M287 751C331 699 320 651 356 601C389 555 438 547 469 503C501 457 492 407 555 333L572 303C526 355 514 397 516 433C518 469 495 503 467 526C430 556 391 580 374 619C354 661 358 705 287 751Z" fill="#f0e4d0" opacity=".40" filter="url(#softCloud)"/>
    <path d="M227 471C290 451 328 465 360 506C390 544 378 597 340 637C297 682 252 694 194 707Z" fill="#111c28" opacity=".9" filter="url(#softCloud)"/>

    <!-- Sharper filaments and dust lanes keep the reflected sky legible. -->
    <path d="M251 716C299 682 289 626 326 574C363 522 420 519 451 466C482 413 462 355 533 280" fill="none" stroke="#b9c5c7" stroke-width="22" stroke-linecap="round" opacity=".30" filter="url(#cloudDetail)"/>
    <path d="M273 730C317 685 312 635 349 589C385 543 438 531 468 484C500 434 490 384 552 305" fill="none" stroke="#eee1ca" stroke-width="10" stroke-linecap="round" opacity=".35" filter="url(#cloudDetail)"/>
    <path d="M238 683C286 647 281 591 319 542C355 495 407 491 437 442C466 393 449 345 511 289" fill="none" stroke="#060b10" stroke-width="27" stroke-linecap="round" opacity=".74" filter="url(#cloudDetail)"/>
    <path d="M290 707C330 667 327 612 364 565C399 521 448 510 477 466C505 423 498 377 540 323" fill="none" stroke="#687884" stroke-width="5" stroke-linecap="round" opacity=".50"/>
    <path d="M430 780C463 725 471 669 489 612C509 551 539 506 575 467" fill="none" stroke="#dfb47e" stroke-width="13" opacity=".31" filter="url(#softGlow)"/>
    <circle cx="431" cy="780" r="45" fill="url(#warmFlare)" opacity=".96"/>
    <circle cx="431" cy="780" r="7" fill="#fffbe1"/>
    <path d="M431 724V836M374 780H488" stroke="#ffdfa5" stroke-width="5" opacity=".42" filter="url(#softGlow)"/>
    <path d="M431 755V805M406 780H456" stroke="#fff2ca" stroke-width="2" opacity=".68"/>

    <!-- Stars scatter around the curved cloud band instead of forming a straight row. -->
    <g fill="#eff7f8" opacity=".78">
      <circle cx="271" cy="684" r="1.8"/><circle cx="304" cy="653" r="2.2"/><circle cx="286" cy="617" r="1.1"/>
      <circle cx="330" cy="600" r="1.5"/><circle cx="354" cy="573" r="2.3"/><circle cx="326" cy="548" r="1.2"/>
      <circle cx="377" cy="536" r="1.8"/><circle cx="405" cy="519" r="1.1"/><circle cx="384" cy="491" r="2.0"/>
      <circle cx="425" cy="479" r="1.3"/><circle cx="451" cy="452" r="2.2"/><circle cx="423" cy="427" r="1.1"/>
      <circle cx="466" cy="406" r="1.7"/><circle cx="454" cy="376" r="1.0"/><circle cx="494" cy="351" r="2.1"/>
      <circle cx="521" cy="327" r="1.2"/><circle cx="292" cy="421" r="1.3"/><circle cx="338" cy="455" r="1.0"/>
      <circle cx="706" cy="370" r="1.4"/><circle cx="758" cy="449" r="1.0"/><circle cx="773" cy="558" r="1.8"/>
      <circle cx="718" cy="687" r="1.2"/><circle cx="651" cy="746" r="1.5"/><circle cx="620" cy="338" r=".9"/>
    </g>

    <!-- Bowed reflections and radial falloff reveal the concave primary surface. -->
    <path d="M292 354C390 438 579 447 694 362" fill="none" stroke="#d7dfe1" stroke-width="3.5" stroke-linecap="round" opacity=".085"/>
    <ellipse cx="512" cy="512" rx="250" ry="243" fill="url(#focusBloom)"/>
    <ellipse cx="512" cy="512" rx="293" ry="285" fill="url(#concaveShade)"/>
    <ellipse cx="512" cy="512" rx="293" ry="285" fill="none" stroke="#f5faf9" stroke-width="5" opacity=".12"/>
    <ellipse cx="512" cy="512" rx="286" ry="278" fill="none" stroke="#000" stroke-width="24" opacity=".34"/>
    </g>
  </g>

  <!-- Front aperture lip stays centered while the mirror is offset behind it. -->
  <circle cx="512" cy="512" r="357" fill="none" stroke="#030405" stroke-width="18" opacity=".96"/>
  <circle cx="512" cy="512" r="347" fill="none" stroke="#747779" stroke-width="3" opacity=".42"/>
  <path d="M233 716A347 347 0 0 0 793 715" fill="none" stroke="#050607" stroke-width="25" opacity=".9"/>
  <path d="M255 294A346 346 0 0 1 807 323" fill="none" stroke="#8b8989" stroke-width="5" opacity=".15"/>

  <!-- Shadows fall onto the mirror far behind the front-mounted spider. -->
  <g id="spider-shadows" clip-path="url(#mirrorClip)" transform="translate(15 20)" filter="url(#vaneShadow)" opacity=".78" fill="none" stroke="#000" stroke-linecap="round">
    <path id="spider-shadow-axis" d="M512 426L512 145" stroke-width="42"/>
    <use href="#spider-shadow-axis" transform="rotate(120 512 512)"/>
    <use href="#spider-shadow-axis" transform="rotate(240 512 512)"/>
    <circle cx="512" cy="512" r="106" fill="#000" stroke="none"/>
  </g>

  <!-- Three identical radial vanes, exactly 120 degrees apart around (512,512). -->
  <g id="spider-vanes" stroke-linecap="round" stroke-linejoin="round">
    <g id="spider-vane">
      <path d="M512 426L512 145" stroke="#020304" stroke-width="29"/>
      <path d="M512 426L512 145" stroke="url(#vaneEdge)" stroke-width="12"/>
      <path d="M512 426L512 145" stroke="#101214" stroke-width="5"/>
    </g>
    <use href="#spider-vane" transform="rotate(120 512 512)"/>
    <use href="#spider-vane" transform="rotate(240 512 512)"/>
  </g>

  <!-- Vane mounting blocks. -->
  <g id="spider-mounts" fill="#0b0c0d" stroke="#303336" stroke-width="4">
    <path id="spider-mount" d="M493 133H531L525 165H499Z"/>
    <use href="#spider-mount" transform="rotate(120 512 512)"/>
    <use href="#spider-mount" transform="rotate(240 512 512)"/>
  </g>

  <!-- Central secondary mirror housing. -->
  <ellipse cx="512" cy="528" rx="100" ry="96" fill="#000" opacity=".62"/>
  <circle cx="512" cy="512" r="97" fill="url(#secondary)" stroke="#020303" stroke-width="10"/>
  <path d="M448 468A84 84 0 0 1 541 432" fill="none" stroke="#73777a" stroke-width="4" opacity=".28"/>
  <circle cx="512" cy="512" r="10" fill="#08090a" stroke="#2d3032" stroke-width="3"/>
  <circle cx="509" cy="509" r="3" fill="#5b6062" opacity=".34"/>
  <g fill="#050607" opacity=".68">
    <circle cx="468" cy="469" r="3"/><circle cx="554" cy="472" r="2.5"/><circle cx="566" cy="525" r="2.5"/>
  </g>

  <!-- Eight fasteners on the orange ring. -->
  <g>
    <g transform="translate(512 72) rotate(8)"><use href="#screw"/></g>
    <g transform="translate(823 201) rotate(35)"><use href="#screw"/></g>
    <g transform="translate(952 512) rotate(83)"><use href="#screw"/></g>
    <g transform="translate(823 823) rotate(118)"><use href="#screw"/></g>
    <g transform="translate(512 952) rotate(5)"><use href="#screw"/></g>
    <g transform="translate(201 823) rotate(43)"><use href="#screw"/></g>
    <g transform="translate(72 512) rotate(91)"><use href="#screw"/></g>
    <g transform="translate(201 201) rotate(128)"><use href="#screw"/></g>
  </g>

  <!-- Final crisp outlines. -->
  <circle cx="512" cy="512" r="474" fill="none" stroke="#1f0904" stroke-width="7" opacity=".78"/>
  <circle cx="512" cy="512" r="407" fill="none" stroke="#090a0b" stroke-width="10"/>
</svg>
